<svg version="1.1" id="Layer_5" xmlns="http://www.w3.org/2000/svg" xmlns:xlink="http://www.w3.org/1999/xlink" x="0px" y="0px"
	 viewBox="0 0 113.39 107.72" style="enable-background:new 0 0 113.39 107.72;" xml:space="preserve">
<style type="text/css">
	.st0{fill:#FFFFFF;}
	.st1{fill:#E94E1B;}
</style>
<g>
	<g>
		<g>
			<path class="st0" d="M61.49,20.45c-13.18,0-26.37,0-39.55,0c-0.35,0-0.71-0.02-1.05,0.04c-0.72,0.12-1.24,0.53-1.46,1.25
				c-0.21,0.69-0.03,1.28,0.46,1.79c0.17,0.17,0.36,0.33,0.55,0.48c10.05,8.52,20.11,17.03,30.15,25.56
				c0.39,0.33,0.69,0.9,0.81,1.41c0.26,1.1,0.35,2.24,0.57,3.35c0.37,1.91,0.8,3.8,1.16,5.71c0.39,2.07,0.72,4.15,1.1,6.23
				c0.9,4.95,1.81,9.9,2.72,14.85c0.63,3.43,1.27,6.86,1.93,10.29c0.2,1.03,0.93,1.59,1.88,1.52c0.79-0.06,1.23-0.57,1.61-1.2
				c6.16-10.3,12.33-20.59,18.5-30.89c1.71-2.85,3.42-5.69,5.13-8.53c4.54-7.56,9.07-15.12,13.6-22.68
				c1.25-2.09,2.52-4.16,3.75-6.27c0.87-1.49,0.08-2.86-1.66-2.91c-0.16,0-0.32,0-0.49,0C87.96,20.45,74.72,20.45,61.49,20.45z"/>
		</g>
		<g>
			<path d="M61.49,20.45c13.24,0,26.47,0,39.71,0c0.16,0,0.32,0,0.49,0c1.74,0.05,2.53,1.42,1.66,2.91c-1.23,2.1-2.5,4.18-3.75,6.27
				c-4.53,7.56-9.07,15.12-13.6,22.68c-1.71,2.85-3.43,5.69-5.13,8.53c-6.17,10.29-12.34,20.59-18.5,30.89
				c-0.38,0.64-0.82,1.14-1.61,1.2c-0.95,0.07-1.68-0.49-1.88-1.52c-0.66-3.43-1.29-6.86-1.93-10.29c-0.91-4.95-1.82-9.9-2.72-14.85
				c-0.38-2.07-0.71-4.16-1.1-6.23c-0.36-1.91-0.79-3.8-1.16-5.71c-0.21-1.11-0.3-2.25-0.57-3.35c-0.12-0.51-0.42-1.07-0.81-1.41
				c-10.04-8.54-20.09-17.05-30.15-25.56c-0.19-0.16-0.38-0.31-0.55-0.48c-0.49-0.51-0.67-1.1-0.46-1.79
				c0.22-0.72,0.73-1.13,1.46-1.25c0.34-0.06,0.7-0.04,1.05-0.04C35.12,20.45,48.3,20.45,61.49,20.45z M96.74,27.42
				c-0.06-0.06-0.12-0.12-0.18-0.18c-0.3,0.16-0.6,0.31-0.89,0.47c-5.48,3-10.96,6.01-16.43,9.01c-7.87,4.32-15.74,8.64-23.62,12.95
				c-0.46,0.25-0.78,0.48-0.65,1.11c0.36,1.74,0.64,3.5,0.96,5.25c0.49,2.67,1.01,5.35,1.5,8.02c1.28,6.94,2.54,13.89,3.82,20.83
				c0.06,0.32,0.17,0.63,0.33,1.18C73.4,66.36,85.07,46.89,96.74,27.42z M26.39,24.11c-0.07,0.09-0.13,0.18-0.2,0.26
				c0.23,0.13,0.47,0.24,0.67,0.41c8.28,7,16.56,14.01,24.84,21.02c1.41,1.19,1.41,1.18,3.07,0.27
				c12.97-7.11,25.93-14.23,38.9-21.34c0.27-0.15,0.53-0.31,0.79-0.46c-0.02-0.05-0.04-0.11-0.06-0.16
				C71.73,24.11,49.06,24.11,26.39,24.11z"/>
		</g>
		<g>
			<path class="st1" d="M96.74,27.42C85.07,46.89,73.4,66.36,61.58,86.07c-0.15-0.55-0.27-0.86-0.33-1.18
				c-1.28-6.94-2.54-13.89-3.82-20.83c-0.49-2.67-1-5.35-1.5-8.02c-0.32-1.75-0.6-3.51-0.96-5.25c-0.13-0.64,0.18-0.86,0.65-1.11
				c7.88-4.31,15.74-8.63,23.62-12.95c5.48-3,10.95-6.01,16.43-9.01c0.29-0.16,0.6-0.31,0.89-0.47
				C96.63,27.3,96.68,27.36,96.74,27.42z"/>
		</g>
		<g>
			<path class="st0" d="M26.39,24.11c22.67,0,45.34,0,68.01,0c0.02,0.05,0.04,0.11,0.06,0.16c-0.26,0.15-0.53,0.31-0.79,0.46
				c-12.97,7.11-25.93,14.22-38.9,21.34c-1.66,0.91-1.66,0.92-3.07-0.27c-8.28-7.01-16.55-14.02-24.84-21.02
				c-0.2-0.17-0.45-0.27-0.67-0.41C26.26,24.29,26.33,24.2,26.39,24.11z"/>
		</g>
	</g>
	<g>
		<path d="M11.59,75.87c-0.67,0-1.31-0.35-1.66-0.97c-0.51-0.92-0.19-2.07,0.73-2.59L41.6,55c0.92-0.51,2.07-0.19,2.59,0.73
			c0.51,0.92,0.19,2.07-0.73,2.59L12.51,75.63C12.22,75.79,11.9,75.87,11.59,75.87z"/>
	</g>
	<g>
		<path d="M17.52,61.28c-0.67,0-1.31-0.35-1.66-0.97c-0.51-0.92-0.19-2.07,0.73-2.59l20.27-11.34c0.92-0.51,2.07-0.19,2.59,0.73
			c0.51,0.92,0.19,2.07-0.73,2.59L18.44,61.04C18.15,61.2,17.83,61.28,17.52,61.28z"/>
	</g>
	<g>
		<path d="M27.65,80.17c-0.67,0-1.31-0.35-1.66-0.97c-0.51-0.92-0.19-2.07,0.73-2.59l20.27-11.34c0.92-0.51,2.07-0.18,2.59,0.73
			c0.51,0.92,0.19,2.07-0.73,2.59L28.58,79.93C28.29,80.09,27.97,80.17,27.65,80.17z"/>
	</g>
</g>
</svg>
