<?xml version="1.0" encoding="utf-8"?>
<!-- Generator: Adobe Illustrator 25.4.1, SVG Export Plug-In . SVG Version: 6.00 Build 0)  -->
<svg version="1.1" id="b511d523-d0bd-4630-9f8f-4ef2adb48046"
	 xmlns="http://www.w3.org/2000/svg" xmlns:xlink="http://www.w3.org/1999/xlink" x="0px" y="0px" viewBox="0 0 888 664.8"
	 style="enable-background:new 0 0 888 664.8;" xml:space="preserve">
<style type="text/css">
	.st0{fill:#E6E6E6;}
	.st1{fill:#3F3D56;}
	.st2{fill:#EC6A3F;}
	.st3{fill:#2F2E41;}
	.st4{fill:#9F616A;}
	.st5{fill:#D0CDE1;}
</style>
<path class="st0" d="M851.7,590.5l3.3-13.1c5.9-2.5,11.9-4.7,18.1-6.5l0.4,6.1l1.7-6.7c7.6-2.2,12.8-3.1,12.8-3.1s-7,26.6-21.7,46.9
	l-17.1,3l13.3,1.9c-1.8,2.2-3.8,4.3-5.9,6.3c-21.3,19.8-45.1,28.9-53.1,20.3s2.8-31.6,24.2-51.4c6.6-6.1,14.9-11.1,23.2-14.9
	L851.7,590.5z"/>
<path class="st0" d="M820.1,576.3l-3.9-12.9c3.8-5.2,7.8-10.2,12.1-14.9l3.5,5l-2-6.6c5.4-5.8,9.3-9.3,9.3-9.3s7.8,26.4,5.7,51.4
	l-13.1,11.4l12.4-5.2c-0.4,2.9-1,5.7-1.8,8.5c-8,28-23.7,48-34.9,44.8s-13.9-28.5-5.9-56.5c2.5-8.7,7.1-17.2,12.2-24.8L820.1,576.3z
	"/>
<rect x="370" y="647.4" class="st1" width="516" height="2"/>
<path class="st0" d="M24.2,261.4c-7-10.4-10-28.8,3-37.9c6.4-4.5,14.3-4,21-2c9.4,2.7,17.7,8.3,24.9,14.6
	c8.3,7.2,15.4,15.7,22.4,24.1c6.9,8.3,13.9,16.6,21.3,24.5c14.5,15.7,30,30.4,46.4,44.1c16.1,13.4,32.9,25.9,50.5,37.2
	c8.7,5.6,17.7,10.9,26.8,16c8.5,4.9,17.2,9.2,26.2,13c12,4.8,32.5,11.5,43.1-2c5.6-7.2,5.9-16.9,4.6-25c-1.5-9.9-5.4-19.1-9.2-28.1
	c-17.7-41.8-35.7-83.5-53.6-125.3c-4.2-9.7-8.5-19.5-11.9-29.5c-3.2-9.4-5.9-19.4-6-29.6c-0.1-9,1.9-19.1,8.7-26
	c5.7-5.7,13.6-7.6,21.1-7.6c18.5,0.1,35.9,9.5,50.2,19.4c17.8,12.3,33.6,27.3,51.4,39.7c14.3,10,31.2,19.1,49.5,20.3
	c7,0.4,14.5-0.5,20.9-4.3c6.1-3.8,10.6-9.8,12.5-16.8c2.4-8.1,2.1-16.6,0.8-24.5c-1.6-9.3-4.5-18.4-8.6-26.9
	c-8.7-18.5-20.5-35.1-30.7-52.6c-5-8.6-9.9-17.5-13-27.1c-2.6-8.1-4.8-17.8-2.2-26.6c5.4-18.2,27.2-11.4,38.3-6.1
	c7.5,3.7,14.8,7.9,21.7,12.6c1.5,1,2.9-1.6,1.5-2.6c-7.3-5-14.9-9.4-22.8-13.2c-6.8-3.1-14.2-5.8-22-5.6c-6.5,0.1-13.1,2.9-16.9,8.7
	c-4.5,6.9-4.2,15.8-3,23.2c1.6,9.8,5.5,18.8,9.9,27.4c4.7,9.1,10,17.7,15.3,26.3c10.7,17.2,22.4,34.6,27.8,54.7
	c3.7,14.1,6.1,36-9.1,46.1c-6.7,4.5-15,5.1-22.5,4.3c-9-1-17.6-4-25.6-7.8c-37.4-17.6-62.3-54-102.2-67.5
	c-13.6-4.6-32.5-7.5-44.5,4.9c-6.2,6.4-8.7,15.4-9.2,23.8c-0.7,10.1,1.4,20,4.3,29.3c3.2,9.8,6.9,19.4,11,28.7
	c4.5,10.5,9,21,13.4,31.4l27.2,63.6l13.5,31.6c4.1,9.6,8.5,19.3,10.7,29.8c1.8,8.6,2.3,20.3-5.3,27.2c-6,5.5-14.7,5.2-21.7,3.9
	c-9.1-1.6-17.6-5.2-25.7-9.2c-9.4-4.6-18.5-9.6-27.5-14.9c-18.4-10.9-36.1-23-53-36.2c-16.9-13.2-33-27.6-48-42.8
	c-7.6-7.7-15-15.7-22.1-23.9c-7.3-8.5-14.2-17.4-21.8-25.6c-6.9-7.5-14.4-14.4-23.1-19.6c-7.3-4.4-15.9-8.1-24.9-7.8
	c-6.4,0.2-12.4,3.1-16.6,8c-4,5-6.2,11.2-6.1,17.6c0,7.2,2.3,14.3,6.4,20.2C22.7,264.4,25.2,262.9,24.2,261.4L24.2,261.4z"/>
<rect x="18.8" y="20.1" class="st0" width="119.8" height="106.4"/>
<rect x="18.8" y="211.6" class="st2" width="119.8" height="106.4"/>
<rect x="403.8" y="20.1" class="st2" width="119.8" height="106.4"/>
<rect x="403.8" y="211.6" class="st0" width="119.8" height="106.4"/>
<rect x="212.7" y="20.1" class="st2" width="119.8" height="106.4"/>
<rect x="212.7" y="211.6" class="st2" width="119.8" height="106.4"/>
<circle class="st1" cx="213" cy="20" r="20"/>
<circle class="st1" cx="406" cy="20" r="20"/>
<circle class="st1" cx="20" cy="212" r="20"/>
<circle class="st1" cx="213" cy="212" r="20"/>
<path class="st3" d="M679.3,637.1c0,0-28,2.2-25.1,12.2s25.1,8.6,25.1,8.6s17.2-1.4,26.5,1.4s20.1,0,20.8-5s-5-8.6-5-8.6l-3.6-7.2
	L679.3,637.1z"/>
<path class="st4" d="M605.8,413.2l-2.9,11.5c0,0-12.9,26.5,2.9,26.5s10-24.4,10-24.4l1.4-11.5L605.8,413.2z"/>
<path class="st4" d="M744.2,403.8l2.9,11.5c0,0,12.9,26.5-2.9,26.5s-10-24.4-10-24.4l-1.4-11.5L744.2,403.8z"/>
<circle class="st4" cx="669.6" cy="178.1" r="30.8"/>
<path class="st4" d="M660.3,201.7c0,0,3.6,16.5,1.4,24.4s44.4-1.4,44.4-1.4s-16.5-27.2-15.8-28L660.3,201.7z"/>
<path class="st5" d="M667.5,220.4c0,0-12.9-3.6-17.2,0.7s-29.4,16.5-29.4,16.5l17.2,105.4l74.5-16.5l12.9-99.6
	c0,0-20.3-11.9-23.8-9.5S667.5,220.4,667.5,220.4z"/>
<path class="st5" d="M626.6,238.3l-3.4-1.8c0,0-13,2.6-12.3,12.6c0.7,10,3.6,65.9,3.6,65.9L603,416l20.8,3.6l20.8-84.6L626.6,238.3z
	"/>
<path class="st5" d="M723.4,229l3.4-1.8c0,0,13,2.6,12.3,12.6s-3.6,65.9-3.6,65.9L747,406.7l-20.8,3.6l-20.8-84.6L723.4,229z"/>
<path class="st3" d="M638.8,332.2l-2.9,43.7l-9.3,87.4l13.6,181.3l47.3,1.4l-14.3-172.7l14.3-59.5l46.9-1.7c0,0,3.3-68.5-23.2-90
	L638.8,332.2z"/>
<polygon class="st3" points="690.4,403.8 682.9,561.9 680.4,641.8 722.7,646.1 733.3,411.1 716.9,394.5 "/>
<path class="st3" d="M683.2,137.2c0,0-28-3.6-35.8,10c0,0-2.2,10-9.3,13.6s1.4,15.8,3.6,19.4s7.9,24.4,1.4,29.4s11.5,19.4,11.5,19.4
	s8.6,11.5,1.4,20.1c-7.2,8.6,9.3,11.5,9.3,11.5s-3.6,24.4,2.9,17.9c0,0,2.9,55.2,30.1,20.8s38.7-50.9,27.2-64.5s-2.9-25.8-2.9-25.8
	s3.6-7.2-4.3-17.9S710.5,137.2,683.2,137.2z"/>
<path class="st3" d="M642.7,641.4c0,0-28,2.2-25.1,12.2s25.1,8.6,25.1,8.6s17.2-1.4,26.5,1.4s20.1,0,20.8-5s-5-8.6-5-8.6l-3.6-7.2
	L642.7,641.4z"/>
</svg>
